<?xml version="1.0" encoding="UTF-8" standalone="no" ?>
<!DOCTYPE svg PUBLIC "-//W3C//DTD SVG 1.1//EN" "http://www.w3.org/Graphics/SVG/1.1/DTD/svg11.dtd">
<svg xmlns="http://www.w3.org/2000/svg" xmlns:xlink="http://www.w3.org/1999/xlink" version="1.1" width="640" height="480" viewBox="0 0 640 480" xml:space="preserve">
<desc>Created with Fabric.js 3.6.6</desc>
<defs>
</defs>
<g transform="matrix(0.84 0 0 0.84 93 84)"  >
<path style="stroke: rgb(0,0,0); stroke-width: 8; stroke-dasharray: none; stroke-linecap: butt; stroke-dashoffset: 0; stroke-linejoin: miter; stroke-miterlimit: 10; fill: none; fill-rule: evenodd; opacity: 1;" vector-effect="non-scaling-stroke"  transform=" translate(-59.83, -59.83)" d="m 0 59.82677 l 33.496998 -3.4664993 l -31.45845 -12.017807 l 33.252647 5.321434 l -27.275928 -19.750513 l 30.742428 13.746485 l -21.234838 -26.137014 l 26.137014 21.234838 l -13.746485 -30.742428 l 19.750513 27.275928 l -5.321434 -33.252647 l 12.017807 31.45845 l 3.4664993 -33.496998 l 3.4664993 33.496998 l 12.017811 -31.45845 l -5.321434 33.252647 l 19.750511 -27.275928 l -13.746483 30.742428 l 26.137009 -21.234838 l -21.234833 26.137014 l 30.742424 -13.746485 l -27.275925 19.750513 l 33.252647 -5.321434 l -31.45845 12.017807 l 33.496994 3.4664993 l -33.496994 3.4664993 l 31.45845 12.017811 l -33.252647 -5.321434 l 27.275925 19.750511 l -30.742424 -13.746483 l 21.234833 26.137009 l -26.137009 -21.234833 l 13.746483 30.742424 l -19.750511 -27.275925 l 5.321434 33.252647 l -12.017811 -31.45845 l -3.4664993 33.496994 l -3.4664993 -33.496994 l -12.017807 31.45845 l 5.321434 -33.252647 l -19.750513 27.275925 l 13.746485 -30.742424 l -26.137014 21.234833 l 21.234838 -26.137009 l -30.742428 13.746483 l 27.275928 -19.750511 l -33.252647 5.321434 l 31.45845 -12.017811 z" stroke-linecap="round" />
</g>
</svg>